<?xml version="1.0" encoding="UTF-8"?> <svg xmlns="http://www.w3.org/2000/svg" width="507" height="266" viewBox="0 0 507 266" fill="none"> <path d="M334.85 82.2808L215.33 133.547L250.273 148.487L403.989 82.5574L334.85 82.2808Z" fill="#101010"></path> <path d="M215.938 133.574L97.7461 82.3081H167.189L255.059 116.476L215.938 133.574Z" fill="#101010"></path> <path d="M97.6636 82.3081L166.581 112.354V196.571H97.6636V82.3081Z" fill="#101010"></path> <path d="M408.775 91.3555L343.26 119.88V199.919H408.775V91.3555Z" fill="#101010"></path> <path d="M75.4746 211.29H395.993L485.882 251.047C475.479 259.55 460.917 263.792 442.196 263.774H64.574C22.4653 263.774 1.40175 242.277 1.3833 199.283V63.163C1.3833 21.9765 22.659 1.3833 65.2103 1.3833H441.615C484.167 1.3833 505.442 22.5944 505.442 65.0166V201.413L452.682 178.837V73.704C452.682 60.3871 445.618 53.7379 431.489 53.7563H74.866C61.7335 53.7563 55.1673 60.2119 55.1673 73.123V190.54C55.1673 204.374 61.9364 211.29 75.4746 211.29Z" fill="#101010"></path> </svg> 